<svg xmlns="http://www.w3.org/2000/svg" xmlns:xlink="http://www.w3.org/1999/xlink" id="Calque_1" x="0" y="0" enable-background="new -437 270 24 24" version="1.1" viewBox="-437 270 24 24" xml:space="preserve"><style type="text/css">.st0{fill:#fff}</style><g><path d="M-435.4,276.9v11.4c0,0.6,0.5,1,1,1h18.8c0.6,0,1-0.5,1-1v-11.6c0-0.1-0.2-0.2-0.3-0.1l-9.7,7 c-0.3,0.2-0.7,0.2-1,0l-9.7-6.8C-435.3,276.7-435.4,276.8-435.4,276.9z" class="st0"/><path d="M-414.9,274.6h-20.2c-0.3,0-0.5,0.4-0.2,0.6l10.1,7c0.1,0.1,0.3,0.1,0.4,0l10.1-7 C-414.4,275.1-414.6,274.6-414.9,274.6z" class="st0"/></g></svg>