<svg xmlns="http://www.w3.org/2000/svg" xmlns:xlink="http://www.w3.org/1999/xlink" id="Capa_1" x="0" y="0" enable-background="new 18 62.3 377.7 377.7" version="1.1" viewBox="18 62.3 377.7 377.7" xml:space="preserve"><style type="text/css">.st0{fill:#fff}</style><switch><g><path d="M371,93.7L26.6,228c-11.2,4.3-10.5,20.4,1,23.7l87.5,25.8l32.7,103.6c3.4,10.8,17.1,14.1,25.1,6l45.2-46.2 l88.8,65.2c10.9,8,26.3,2.1,29.1-11.1l58.8-281.1C397.6,100.1,384.1,88.6,371,93.7z M327.8,156.1l-160,141.5 c-1.6,1.4-2.6,3.4-2.8,5.5l-6.2,54.8c-0.2,1.8-2.7,2-3.2,0.3l-25.3-81.7c-1.2-3.7,0.4-7.8,3.7-9.9l188.9-117.2 C327.2,146.8,331.6,152.8,327.8,156.1z" class="st0"/></g></switch></svg>